<svg width="88" height="48" viewBox="0 0 88 48" fill="none" xmlns="http://www.w3.org/2000/svg">
<path d="M2.56943 47.3993H0.580004C0.558486 47.3993 0.547727 47.3882 0.547727 47.3681V43.7031C0.546209 43.6868 0.53923 43.6715 0.527986 43.66C0.516742 43.6484 0.501936 43.6412 0.486107 43.6396H0.061619C0.0455805 43.6406 0.0304432 43.6476 0.0190831 43.6593C0.00772307 43.671 0.000932077 43.6866 0 43.7031V47.8685C0.00151751 47.8848 0.0084971 47.9001 0.0197407 47.9116C0.0309844 47.9232 0.0457907 47.9304 0.061619 47.9319H2.56943C2.58539 47.9308 2.60041 47.9237 2.61173 47.9121C2.62305 47.9004 2.62991 47.8849 2.63105 47.8685V47.4658C2.6306 47.4488 2.62406 47.4326 2.61267 47.4203C2.60128 47.408 2.58587 47.4006 2.56943 47.3993Z" fill="white"/>
<path d="M3.90606 43.6407H3.48255C3.47439 43.6404 3.46625 43.6418 3.45865 43.6449C3.45105 43.648 3.44415 43.6527 3.43837 43.6586C3.4326 43.6646 3.42807 43.6717 3.42507 43.6795C3.42207 43.6873 3.42066 43.6957 3.42093 43.7041V47.8695C3.4208 47.8779 3.4223 47.8862 3.42535 47.894C3.4284 47.9017 3.43294 47.9088 3.43868 47.9147C3.44443 47.9206 3.45128 47.9253 3.45882 47.9284C3.46635 47.9315 3.47442 47.9331 3.48255 47.933H3.90606C3.92203 47.9318 3.93705 47.9247 3.94837 47.9131C3.95969 47.9014 3.96654 47.886 3.96768 47.8695V43.7041C3.96654 43.6877 3.95969 43.6722 3.94837 43.6605C3.93705 43.6489 3.92203 43.6418 3.90606 43.6407Z" fill="white"/>
<path d="M7.68566 43.6407H5.18079C5.17263 43.6404 5.16449 43.6418 5.1569 43.6449C5.1493 43.648 5.14239 43.6527 5.13662 43.6586C5.13084 43.6646 5.12631 43.6717 5.12331 43.6795C5.12031 43.6873 5.1189 43.6957 5.11917 43.7041V47.8695C5.11904 47.8779 5.12055 47.8862 5.1236 47.894C5.12664 47.9017 5.13118 47.9088 5.13693 47.9147C5.14268 47.9206 5.14952 47.9253 5.15706 47.9284C5.16459 47.9315 5.17266 47.9331 5.18079 47.933H5.6043C5.61927 47.9314 5.63306 47.9239 5.64275 47.9121C5.65243 47.9002 5.65724 47.885 5.65614 47.8695V46.1125C5.65552 46.1068 5.65616 46.101 5.658 46.0956C5.65984 46.0902 5.66285 46.0853 5.6668 46.0812C5.67074 46.0772 5.67553 46.0741 5.68079 46.0722C5.68606 46.0703 5.69167 46.0696 5.69722 46.0702H7.38637C7.39454 46.0705 7.40267 46.0691 7.41027 46.066C7.41787 46.0629 7.42477 46.0582 7.43055 46.0523C7.43633 46.0463 7.44086 46.0392 7.44386 46.0314C7.44686 46.0236 7.44827 46.0152 7.44799 46.0068V45.6121C7.44813 45.6038 7.44662 45.5954 7.44357 45.5877C7.44052 45.5799 7.43599 45.5729 7.43024 45.567C7.42449 45.561 7.41764 45.5564 7.41011 45.5532C7.40257 45.5501 7.3945 45.5485 7.38637 45.5487H5.69624C5.6907 45.5493 5.68508 45.5487 5.67982 45.5468C5.67455 45.5449 5.66976 45.5418 5.66582 45.5377C5.66187 45.5337 5.65886 45.5287 5.65702 45.5233C5.65518 45.5179 5.65454 45.5121 5.65516 45.5064V44.2065C5.65516 44.1844 5.67668 44.1753 5.69624 44.1753H7.68469C7.69215 44.1747 7.69941 44.1725 7.70606 44.169C7.71271 44.1655 7.71862 44.1606 7.72344 44.1547C7.72826 44.1488 7.73189 44.142 7.73414 44.1346C7.73638 44.1273 7.7372 44.1196 7.73653 44.1119V43.7091C7.73791 43.7012 7.73767 43.693 7.73582 43.6851C7.73396 43.6772 7.73053 43.6698 7.72575 43.6634C7.72096 43.6569 7.71493 43.6516 7.70803 43.6477C7.70113 43.6438 7.69351 43.6414 7.68566 43.6407Z" fill="white"/>
<path d="M11.2101 43.6406H8.70225C8.68621 43.6416 8.67107 43.6486 8.65971 43.6603C8.64835 43.672 8.64156 43.6876 8.64062 43.7041V47.8695C8.64214 47.8858 8.64912 47.901 8.66037 47.9126C8.67161 47.9242 8.68642 47.9314 8.70225 47.9329H11.2091C11.2172 47.9331 11.2253 47.9315 11.2328 47.9284C11.2403 47.9252 11.2472 47.9206 11.2529 47.9147C11.2587 47.9087 11.2632 47.9017 11.2663 47.8939C11.2693 47.8862 11.2708 47.8779 11.2707 47.8695V47.4667C11.2708 47.4584 11.2693 47.4501 11.2663 47.4423C11.2632 47.4346 11.2587 47.4275 11.2529 47.4216C11.2472 47.4157 11.2403 47.411 11.2328 47.4079C11.2253 47.4047 11.2172 47.4032 11.2091 47.4033H9.23139C9.19911 47.4033 9.19031 47.3922 9.19031 47.3721V46.0632C9.19031 46.041 9.20107 46.0319 9.23139 46.0319H10.9098C10.9181 46.0329 10.9265 46.0319 10.9344 46.0291C10.9423 46.0262 10.9495 46.0216 10.9554 46.0155C10.9613 46.0094 10.9658 46.002 10.9686 45.9939C10.9714 45.9858 10.9723 45.9771 10.9714 45.9685V45.5738C10.9723 45.5653 10.9714 45.5566 10.9686 45.5485C10.9658 45.5403 10.9613 45.5329 10.9554 45.5268C10.9495 45.5207 10.9423 45.5161 10.9344 45.5133C10.9265 45.5104 10.9181 45.5094 10.9098 45.5104H9.23139C9.19911 45.5104 9.19031 45.4993 9.19031 45.4681V44.2115C9.19031 44.1894 9.20107 44.1803 9.23139 44.1803H11.2101C11.2182 44.1806 11.2264 44.1791 11.234 44.1761C11.2416 44.173 11.2485 44.1683 11.2542 44.1624C11.26 44.1564 11.2645 44.1493 11.2675 44.1415C11.2705 44.1337 11.2719 44.1253 11.2717 44.1169V43.7141C11.2731 43.705 11.2726 43.6957 11.2701 43.6868C11.2677 43.6779 11.2634 43.6696 11.2575 43.6626C11.2516 43.6556 11.2443 43.65 11.2361 43.6462C11.2279 43.6424 11.219 43.6405 11.2101 43.6406Z" fill="white"/>
<path d="M16.6588 45.6549H15.3227C15.3146 45.6546 15.3064 45.6561 15.2988 45.6592C15.2912 45.6623 15.2843 45.6669 15.2786 45.6729C15.2728 45.6788 15.2682 45.6859 15.2652 45.6938C15.2622 45.7016 15.2608 45.7099 15.2611 45.7184V46.0798C15.261 46.0882 15.2625 46.0965 15.2655 46.1043C15.2686 46.112 15.2731 46.1191 15.2789 46.125C15.2846 46.1309 15.2915 46.1356 15.299 46.1387C15.3065 46.1418 15.3146 46.1434 15.3227 46.1432H16.1297C16.1619 46.1432 16.1707 46.1543 16.1707 46.1855C16.1758 46.4118 16.1478 46.6375 16.0876 46.8551C16.0277 47.0458 15.9073 47.2103 15.7457 47.3223C15.5841 47.4342 15.3908 47.487 15.1966 47.4723C14.9971 47.4929 14.7969 47.4399 14.6318 47.3228C14.4667 47.2057 14.3473 47.0322 14.2948 46.833C14.1834 46.1382 14.1834 45.4294 14.2948 44.7346C14.3476 44.5356 14.4671 44.3623 14.6322 44.2453C14.7972 44.1283 14.9971 44.0751 15.1966 44.0953C15.3861 44.0831 15.5748 44.1305 15.7376 44.2312C15.9004 44.3319 16.0296 44.4811 16.1081 44.6591C16.1297 44.7014 16.16 44.7125 16.1913 44.6903L16.5639 44.5091C16.5771 44.5 16.5865 44.4863 16.5905 44.4705C16.5945 44.4547 16.5927 44.438 16.5854 44.4235C16.464 44.1546 16.2668 43.9295 16.0194 43.7774C15.7721 43.6254 15.4861 43.5533 15.1985 43.5707C14.8852 43.5456 14.5729 43.631 14.313 43.8129C14.0531 43.9948 13.8611 44.2624 13.7686 44.5715C13.6737 44.9664 13.6391 45.374 13.6659 45.7798C13.6404 46.1876 13.675 46.597 13.7686 46.9941C13.8606 47.3035 14.0525 47.5714 14.3126 47.7534C14.5726 47.9353 14.8851 48.0205 15.1985 47.9949C15.5104 48.0145 15.8196 47.926 16.0768 47.7435C16.3341 47.561 16.5245 47.295 16.6177 46.988C16.6869 46.6772 16.7213 46.3594 16.7204 46.0405V45.7163C16.7207 45.708 16.7193 45.6997 16.7163 45.692C16.7133 45.6843 16.7087 45.6773 16.7029 45.6715C16.6971 45.6657 16.6902 45.6612 16.6826 45.6584C16.675 45.6555 16.6669 45.6543 16.6588 45.6549Z" fill="white"/>
<path d="M19.1009 43.576C18.7892 43.5526 18.479 43.6389 18.2211 43.8207C17.9633 44.0026 17.7731 44.2692 17.6817 44.5769C17.5756 44.9697 17.5372 45.3786 17.5682 45.7851C17.5384 46.1936 17.5768 46.6043 17.6817 46.9994C17.7933 47.2931 17.9884 47.5453 18.2414 47.7231C18.4944 47.9008 18.7936 47.996 19.0999 47.996C19.4063 47.996 19.7055 47.9008 19.9585 47.7231C20.2115 47.5453 20.4065 47.2931 20.5181 46.9994C20.655 46.2001 20.655 45.3822 20.5181 44.5829C20.4284 44.2742 20.2391 44.0061 19.9814 43.8231C19.7237 43.64 19.4132 43.5529 19.1009 43.576ZM19.9812 46.8353C19.9305 47.0311 19.8146 47.2024 19.6537 47.3193C19.4928 47.4362 19.2972 47.4911 19.1009 47.4746C18.9033 47.4916 18.7061 47.4371 18.5434 47.3203C18.3807 47.2036 18.2627 47.032 18.2099 46.8353C18.1396 46.4891 18.1117 46.1353 18.1267 45.7821C18.1111 45.4315 18.139 45.0803 18.2099 44.737C18.2631 44.5404 18.3811 44.3691 18.5437 44.2524C18.7063 44.1357 18.9034 44.081 19.1009 44.0976C19.2972 44.0807 19.4931 44.1355 19.654 44.2524C19.815 44.3693 19.9308 44.5409 19.9812 44.737C20.0643 45.0783 20.0973 45.4306 20.079 45.7821C20.0969 46.1361 20.0646 46.4909 19.9831 46.8353H19.9812Z" fill="white"/>
<path d="M23.1436 43.705C23.1376 43.687 23.1265 43.6713 23.1116 43.66C23.0968 43.6486 23.0789 43.6422 23.0604 43.6416H22.6692C22.6174 43.6416 22.6076 43.6728 22.5861 43.705L21.1453 47.8705C21.1429 47.8774 21.142 47.8849 21.1429 47.8923C21.1438 47.8996 21.1463 47.9067 21.1503 47.9129C21.1543 47.919 21.1597 47.9242 21.1659 47.9278C21.1722 47.9315 21.1792 47.9336 21.1864 47.9339H21.6099C21.651 47.9339 21.6716 47.9117 21.6931 47.8705L22.0139 46.9341H23.6923L24.0131 47.8705C24.0173 47.8895 24.0279 47.9064 24.0432 47.9181C24.0585 47.9297 24.0773 47.9353 24.0962 47.9339H24.5197C24.5608 47.9339 24.5814 47.9007 24.5608 47.8705L23.1436 43.705ZM22.189 46.4236L22.8531 44.4753H22.8638L23.5172 46.4236H22.189Z" fill="white"/>
<path d="M27.9181 47.4003H25.9296C25.9081 47.4003 25.8974 47.3892 25.8974 47.3691V43.7041C25.8958 43.6878 25.8889 43.6726 25.8776 43.661C25.8664 43.6494 25.8516 43.6422 25.8357 43.6407H25.4122C25.4041 43.6404 25.3959 43.6418 25.3883 43.6449C25.3807 43.648 25.3738 43.6527 25.3681 43.6586C25.3623 43.6646 25.3578 43.6717 25.3548 43.6795C25.3518 43.6873 25.3503 43.6957 25.3506 43.7041V47.8695C25.3505 47.8779 25.352 47.8862 25.355 47.894C25.3581 47.9017 25.3626 47.9088 25.3684 47.9147C25.3741 47.9206 25.381 47.9253 25.3885 47.9284C25.396 47.9315 25.4041 47.9331 25.4122 47.933H27.9191C27.935 47.9318 27.9501 47.9247 27.9614 47.9131C27.9727 47.9014 27.9795 47.886 27.9807 47.8695V47.4668C27.9802 47.4496 27.9735 47.4333 27.9619 47.421C27.9504 47.4087 27.9347 47.4013 27.9181 47.4003Z" fill="white"/>
<path d="M30.3213 45.504L30.1257 45.4819C29.4831 45.3872 29.2454 45.1516 29.2454 44.7902C29.2454 44.3874 29.5261 44.0984 30.0337 44.0984C30.3919 44.1002 30.7415 44.2112 31.0382 44.4176C31.0452 44.4239 31.0533 44.4287 31.0622 44.4316C31.071 44.4344 31.0803 44.4354 31.0895 44.4343C31.0987 44.4333 31.1076 44.4303 31.1156 44.4255C31.1236 44.4207 31.1306 44.4143 31.136 44.4065L31.3434 44.0562C31.3649 44.034 31.3541 44.0028 31.3326 43.9706C30.957 43.7103 30.5139 43.5727 30.0611 43.5759C29.8893 43.5539 29.715 43.5702 29.5499 43.6236C29.3848 43.6771 29.2327 43.7663 29.104 43.8855C28.9753 44.0046 28.8729 44.1508 28.8038 44.3142C28.7347 44.4775 28.7005 44.6543 28.7035 44.8325C28.7035 45.502 29.1192 45.8967 29.9262 46.0135L30.1335 46.0467C30.8074 46.1323 31.003 46.377 31.003 46.7384C31.003 47.1744 30.6607 47.4725 30.0914 47.4725C29.6645 47.4626 29.2524 47.3095 28.9177 47.0365C28.8855 47.0053 28.8561 47.0053 28.8346 47.0365L28.5646 47.3667C28.5543 47.3802 28.5487 47.3969 28.5487 47.4141C28.5487 47.4312 28.5543 47.4479 28.5646 47.4614C28.9799 47.807 29.4978 47.9954 30.0318 47.995C31.0363 47.995 31.5429 47.4533 31.5429 46.7052C31.5439 46.0024 31.139 45.6208 30.3213 45.504Z" fill="white"/>
<path d="M32.9543 47.2611H32.4878C32.4794 47.2601 32.471 47.2611 32.4631 47.264C32.4552 47.2668 32.448 47.2715 32.4421 47.2776C32.4362 47.2836 32.4317 47.291 32.4289 47.2992C32.4262 47.3073 32.4252 47.316 32.4261 47.3245V47.8662C32.4261 47.8974 32.4476 47.9196 32.4878 47.9196H32.9543C32.9693 47.9207 32.9841 47.9158 32.9956 47.9058C33.0072 47.8958 33.0144 47.8816 33.0159 47.8662V47.3245C33.016 47.3162 33.0145 47.3079 33.0115 47.3001C33.0084 47.2923 33.0039 47.2853 32.9982 47.2794C32.9924 47.2735 32.9856 47.2688 32.978 47.2656C32.9705 47.2625 32.9624 47.261 32.9543 47.2611Z" fill="white"/>
<path d="M36.9984 43.6401H35.6007C35.5925 43.6398 35.5844 43.6413 35.5768 43.6444C35.5692 43.6475 35.5623 43.6521 35.5565 43.6581C35.5508 43.664 35.5462 43.6711 35.5432 43.679C35.5402 43.6868 35.5388 43.6951 35.5391 43.7035V47.869C35.5391 47.9002 35.5606 47.9223 35.6007 47.9223H36.9984C37.2919 47.9584 37.5884 47.8875 37.8364 47.722C38.0844 47.5564 38.2682 47.3067 38.356 47.0161C38.5072 46.2029 38.5072 45.3676 38.356 44.5544C38.2685 44.2631 38.0851 44.0123 37.8372 43.8454C37.5894 43.6785 37.2927 43.6059 36.9984 43.6401ZM37.8376 46.8138C37.77 47.0104 37.6378 47.1766 37.4639 47.2836C37.2899 47.3906 37.0852 47.4317 36.8849 47.3998H36.1181C36.0966 47.3998 36.077 47.3887 36.077 47.3686V44.206C36.077 44.1838 36.0986 44.1748 36.1181 44.1748H36.8849C37.0852 44.1425 37.2902 44.1834 37.4642 44.2905C37.6382 44.3975 37.7703 44.5639 37.8376 44.7608C37.9186 45.0949 37.9467 45.4404 37.9207 45.7837C37.9494 46.1293 37.9223 46.4773 37.8405 46.8138H37.8376Z" fill="white"/>
<path d="M40.8539 43.5759C40.5425 43.5541 40.233 43.641 39.9755 43.8226C39.718 44.0042 39.5275 44.2699 39.4347 44.5767C39.3399 44.9715 39.3052 45.3792 39.332 45.7849C39.3065 46.1927 39.3411 46.6021 39.4347 46.9992C39.5463 47.2929 39.7413 47.5451 39.9944 47.7229C40.2474 47.9007 40.5466 47.9958 40.8529 47.9958C41.1593 47.9958 41.4585 47.9007 41.7115 47.7229C41.9645 47.5451 42.1595 47.2929 42.2711 46.9992C42.4223 46.2012 42.4223 45.3807 42.2711 44.5827C42.1812 44.2741 41.9919 44.0062 41.7343 43.8231C41.4766 43.6401 41.1661 43.5529 40.8539 43.5759ZM41.7449 46.8351C41.6917 47.0317 41.5737 47.203 41.4111 47.3197C41.2485 47.4364 41.0514 47.4911 40.8539 47.4745C40.6576 47.4914 40.4617 47.4366 40.3008 47.3197C40.1398 47.2027 40.024 47.0312 39.9736 46.8351C39.8902 46.491 39.8573 46.136 39.8758 45.7819C39.8567 45.4305 39.8897 45.078 39.9736 44.7368C40.0243 44.5409 40.1402 44.3696 40.3011 44.2527C40.462 44.1359 40.6576 44.0809 40.8539 44.0974C41.0516 44.0802 41.2488 44.1347 41.4116 44.2515C41.5743 44.3683 41.6922 44.5399 41.7449 44.7368C41.8222 45.0792 41.8551 45.4306 41.8427 45.7819C41.8564 46.1359 41.8235 46.4902 41.7449 46.8351Z" fill="white"/>
<path d="M46.3044 43.6407H45.921C45.9128 43.6404 45.9047 43.6419 45.8971 43.645C45.8895 43.648 45.8826 43.6527 45.8768 43.6587C45.871 43.6646 45.8665 43.6717 45.8635 43.6795C45.8605 43.6874 45.8591 43.6957 45.8593 43.7041V46.9261H45.8378L43.9521 43.7041C43.94 43.6845 43.9233 43.6683 43.9034 43.6572C43.8835 43.6461 43.8612 43.6404 43.8386 43.6407H43.4552C43.447 43.6403 43.4387 43.6416 43.431 43.6446C43.4233 43.6477 43.4163 43.6523 43.4104 43.6583C43.4045 43.6642 43.3999 43.6714 43.3968 43.6793C43.3938 43.6872 43.3923 43.6956 43.3926 43.7041V47.8696C43.3925 47.878 43.394 47.8864 43.3971 47.8942C43.4002 47.9021 43.4048 47.9092 43.4107 47.9151C43.4166 47.921 43.4235 47.9257 43.4312 47.9288C43.4388 47.9318 43.447 47.9333 43.4552 47.933H43.8386C43.8546 47.9318 43.8696 47.9248 43.8809 47.9131C43.8922 47.9015 43.8991 47.886 43.9002 47.8696V44.6677H43.9218L45.8075 47.8746C45.8184 47.8929 45.8334 47.9083 45.8513 47.9193C45.8692 47.9304 45.8894 47.9368 45.9102 47.938H46.3014C46.3096 47.9383 46.3178 47.9369 46.3255 47.9338C46.3331 47.9307 46.3401 47.9261 46.3459 47.9201C46.3518 47.9142 46.3564 47.9071 46.3595 47.8993C46.3626 47.8914 46.3642 47.883 46.364 47.8746V43.7092C46.365 43.7005 46.3642 43.6918 46.3616 43.6835C46.359 43.6752 46.3548 43.6676 46.3492 43.6611C46.3435 43.6546 46.3366 43.6495 46.3289 43.646C46.3212 43.6424 46.3128 43.6406 46.3044 43.6407Z" fill="white"/>
<path d="M50.0841 43.6406H47.5733C47.5573 43.6416 47.5422 43.6486 47.5308 43.6603C47.5194 43.672 47.5127 43.6876 47.5117 43.7041V47.8695C47.5132 47.8858 47.5202 47.901 47.5314 47.9126C47.5427 47.9242 47.5575 47.9314 47.5733 47.9329H50.0802C50.0961 47.9317 50.1112 47.9247 50.1225 47.913C50.1338 47.9014 50.1406 47.8859 50.1418 47.8695V47.4667C50.1403 47.4504 50.1333 47.4352 50.122 47.4236C50.1108 47.4121 50.096 47.4049 50.0802 47.4033H48.0917C48.0702 47.4033 48.0594 47.3922 48.0594 47.3721V46.0632C48.0594 46.041 48.0702 46.0319 48.0917 46.0319H49.7809C49.789 46.0322 49.7972 46.0308 49.8048 46.0277C49.8124 46.0246 49.8193 46.0199 49.825 46.014C49.8308 46.0081 49.8354 46.0009 49.8384 45.9931C49.8414 45.9853 49.8428 45.9769 49.8425 45.9685V45.5738C49.8426 45.5654 49.8411 45.5571 49.8381 45.5494C49.835 45.5416 49.8305 45.5346 49.8247 45.5287C49.819 45.5227 49.8121 45.5181 49.8046 45.5149C49.7971 45.5118 49.789 45.5103 49.7809 45.5104H48.0917C48.0702 45.5104 48.0594 45.4993 48.0594 45.4681V44.2115C48.0594 44.1894 48.0702 44.1803 48.0917 44.1803H50.0802C50.0962 44.1794 50.1113 44.1724 50.1227 44.1607C50.1341 44.149 50.1408 44.1334 50.1418 44.1169V43.7141C50.1429 43.6966 50.1376 43.6794 50.1269 43.6657C50.1162 43.6521 50.1009 43.6431 50.0841 43.6406Z" fill="white"/>
<path d="M51.5262 47.2608H51.0568C51.0245 47.2608 51.0049 47.283 51.0049 47.3243V47.866C51.0046 47.8731 51.0058 47.8801 51.0083 47.8867C51.0108 47.8933 51.0146 47.8993 51.0195 47.9043C51.0244 47.9093 51.0302 47.9133 51.0366 47.9159C51.043 47.9184 51.0499 47.9196 51.0568 47.9193H51.5233C51.5644 47.9193 51.5849 47.8972 51.5849 47.866V47.3243C51.5858 47.316 51.5849 47.3076 51.5823 47.2997C51.5797 47.2918 51.5755 47.2846 51.5699 47.2786C51.5643 47.2725 51.5575 47.2678 51.5499 47.2647C51.5424 47.2617 51.5343 47.2604 51.5262 47.2608Z" fill="white"/>
<path d="M87.9982 18.9316C87.9996 17.7714 87.6665 16.6367 87.0413 15.6713C86.4161 14.7059 85.5268 13.953 84.4859 13.508C83.4449 13.0631 82.2992 12.9459 81.1936 13.1714C80.0879 13.3969 79.0721 13.9549 78.2746 14.7749C77.4772 15.5949 76.9339 16.6399 76.7135 17.7778C76.4931 18.9157 76.6055 20.0953 77.0365 21.1674C77.4676 22.2395 78.1978 23.1559 79.1349 23.8007C80.072 24.4455 81.1737 24.7896 82.3009 24.7896C83.0539 24.8102 83.8032 24.6728 84.503 24.3858C85.2028 24.0988 85.8386 23.6682 86.3716 23.1202C86.9046 22.5722 87.3237 21.9182 87.6033 21.1981C87.8829 20.478 88.0173 19.7069 87.9982 18.9316ZM87.0348 18.9316C87.0244 19.8916 86.7384 20.827 86.2128 21.6201C85.6873 22.4132 84.9456 23.0286 84.0811 23.3888C83.2167 23.7491 82.268 23.8381 81.3545 23.6447C80.441 23.4513 79.6035 22.9841 78.9473 22.3019C78.2911 21.6197 77.8456 20.7529 77.6667 19.8107C77.4879 18.8685 77.5837 17.8928 77.9422 17.0065C78.3006 16.1202 78.9057 15.3628 79.6813 14.8296C80.4568 14.2965 81.3682 14.0113 82.3009 14.0101C82.9312 13.9923 83.5584 14.1078 84.1437 14.3494C84.729 14.5911 85.2599 14.9538 85.7036 15.4151C86.1473 15.8763 86.4944 16.4264 86.7233 17.0313C86.9523 17.6362 87.0583 18.2829 87.0348 18.9316ZM80.7574 22.211V16.492H79.7793C79.302 16.492 79.1152 16.6722 79.1152 17.1837V22.211H80.7574ZM83.8531 22.211H85.4806V17.1817C85.4806 16.6702 85.2948 16.49 84.8165 16.49H83.8531V22.211ZM83.1293 22.211V15.7469C83.1293 15.2354 82.9435 15.0663 82.4544 15.0663H80.9873V15.7801H81.0851C81.4167 15.7801 81.49 15.8657 81.49 16.2836V22.2171H83.1361L83.1293 22.211Z" fill="white"/>
<path d="M44.2206 22.2098L44.7605 20.3673H46.8731L47.37 22.2098H49.3379L47.3925 15.1899C47.358 15.0061 47.258 14.8422 47.1122 14.7305C46.9663 14.6187 46.7851 14.5671 46.6042 14.5858H43.8382V15.2483H44.0651C44.3585 15.2483 44.5101 15.3651 44.5101 15.5896C44.4965 15.8025 44.4472 16.0113 44.3644 16.2069L42.416 22.2149H44.2225L44.2206 22.2098ZM46.6032 19.1218H45.0383L45.8775 16.3206L46.6032 19.1218Z" fill="white"/>
<path d="M57.5738 22.2099V17.0749C57.5803 16.9972 57.5704 16.919 57.5448 16.8456C57.5192 16.7722 57.4785 16.7054 57.4254 16.6497C57.3724 16.594 57.3083 16.5509 57.2375 16.5231C57.1667 16.4953 57.0909 16.4837 57.0153 16.4889H55.3262V17.1393H55.4289C55.7096 17.1393 55.8338 17.2783 55.8338 17.5753V22.2069L57.5738 22.2099ZM57.6061 15.2766C57.6061 14.7651 57.2442 14.457 56.6016 14.457C55.9805 14.457 55.6079 14.7651 55.6079 15.2766C55.6079 15.7881 55.9805 16.1073 56.6016 16.1073C57.2422 16.1073 57.6061 15.7992 57.6061 15.2766Z" fill="white"/>
<path d="M59.045 18.1297C59.5811 17.8574 60.1671 17.7051 60.7645 17.6827C61.231 17.6827 61.3963 17.8529 61.3963 18.3523V18.4791C60.6813 18.5959 60.4652 18.6382 60.0602 18.7349C59.8373 18.788 59.6188 18.8594 59.4069 18.9483C59.0754 19.0743 58.7939 19.3098 58.6065 19.6181C58.419 19.9264 58.3362 20.29 58.3711 20.652C58.3711 21.7384 58.8269 22.272 59.7688 22.272C60.0907 22.2706 60.4097 22.2095 60.7107 22.0918C60.9781 21.9558 61.2283 21.7867 61.456 21.5883V21.6739C61.4464 21.7463 61.4532 21.82 61.4759 21.8892C61.4986 21.9584 61.5365 22.0213 61.5867 22.073C61.6369 22.1246 61.698 22.1637 61.7652 22.187C61.8325 22.2103 61.904 22.2174 61.9743 22.2076H63.5696V21.5904H63.4865C63.1872 21.5904 63.0708 21.4514 63.0708 21.0869V18.3633C63.0708 16.9155 62.5817 16.415 61.1762 16.415C60.7264 16.4144 60.278 16.4678 59.8402 16.5741C59.4261 16.6645 59.0277 16.819 58.6586 17.0323L59.045 18.1297ZM61.3924 19.4608V20.5785C61.1522 20.8615 60.8143 21.037 60.4505 21.0678C60.1404 21.0678 60.027 20.9087 60.027 20.4818C60.027 20.0549 60.1248 19.8646 60.4319 19.7478C60.7405 19.614 61.0631 19.5177 61.3934 19.4608H61.3924Z" fill="white"/>
<path d="M74.3759 21.0162H71.9522L74.2732 17.6703V16.4893H70.6484C70.2328 16.4893 70.0381 16.6806 70.0381 17.1065V18.1506H70.6915V18.0449C70.6915 17.7891 70.8265 17.6613 71.0964 17.6613H72.3484L70.0088 21.0383V22.2103H74.3808V21.0162H74.3759Z" fill="white"/>
<path d="M66.1002 22.2093V18.347C66.2127 18.2001 66.3556 18.081 66.5186 17.9982C66.6815 17.9155 66.8604 17.8713 67.0421 17.8687C67.404 17.8687 67.4978 18.0187 67.4978 18.5937V22.2184H69.2281V18.3218C69.2281 17.4156 69.1665 17.1297 68.8857 16.8296C68.749 16.69 68.585 16.5818 68.4046 16.5124C68.2241 16.4429 68.0314 16.4138 67.8392 16.4269C67.4987 16.4257 67.1618 16.4992 66.851 16.6424C66.5402 16.7856 66.2626 16.9953 66.0366 17.2575V17.035C66.0464 16.9603 66.039 16.8842 66.0151 16.8129C65.9912 16.7416 65.9515 16.677 65.899 16.6244C65.8465 16.5717 65.7828 16.5325 65.7129 16.5097C65.6431 16.487 65.569 16.4813 65.4967 16.4933H63.8496V17.1387H63.9523C64.2457 17.1387 64.368 17.2777 64.368 17.5747V22.2063L66.1002 22.2093Z" fill="white"/>
<path d="M54.5592 22.2092V15.1692C54.5675 15.0911 54.5588 15.0121 54.5338 14.9379C54.5088 14.8637 54.4681 14.7961 54.4147 14.7401C54.3613 14.684 54.2964 14.6409 54.2248 14.6137C54.1533 14.5866 54.0767 14.5762 54.0007 14.5832H52.292V15.2477H52.3947C52.694 15.2477 52.8104 15.3756 52.8104 15.6726V22.2112L54.5592 22.2092Z" fill="white"/>
<path d="M51.5846 22.2096V15.1695C51.5932 15.0923 51.5851 15.0142 51.5609 14.9406C51.5367 14.867 51.497 14.7998 51.4447 14.7438C51.3924 14.6878 51.3287 14.6444 51.2582 14.6167C51.1877 14.589 51.1121 14.5777 51.0369 14.5835H49.3174V15.2481H49.4309C49.7243 15.2481 49.8465 15.3759 49.8465 15.673V22.2116L51.5846 22.2096Z" fill="white"/>
<path d="M36.7212 0H0V37.804H36.7212V0Z" fill="white"/>
<path fill-rule="evenodd" clip-rule="evenodd" d="M1.89941 35.8361V30.8018H6.26656C7.16835 30.8018 8.61396 30.9256 8.61396 32.1218C8.58256 32.4124 8.45753 32.6838 8.25881 32.8928C8.06008 33.1017 7.79912 33.2362 7.51753 33.2746C8.24718 33.4992 8.61396 33.914 8.61396 34.4829C8.61396 35.7173 7.23486 35.8361 6.26656 35.8401L1.89941 35.8361ZM3.50249 33.7156L3.96708 32.9444C4.02532 32.8575 4.103 32.7864 4.19356 32.737C4.28413 32.6876 4.38492 32.6613 4.48742 32.6604H6.26851C6.58737 32.6604 6.84656 32.5124 6.84656 32.2577C6.84656 32.003 6.58933 31.855 6.26851 31.855H3.50249V33.7156ZM3.50249 33.7156V35.8361L3.96708 35.0628C4.02532 34.976 4.103 34.9049 4.19356 34.8554C4.28413 34.806 4.38492 34.7798 4.48742 34.7789H6.24797C6.32198 34.7899 6.39742 34.7844 6.46918 34.7628C6.54094 34.7412 6.60734 34.7039 6.66387 34.6535C6.7204 34.6031 6.76575 34.5408 6.79683 34.4708C6.82791 34.4008 6.84399 34.3247 6.84399 34.2478C6.84399 34.1708 6.82791 34.0947 6.79683 34.0247C6.76575 33.9547 6.7204 33.8924 6.66387 33.842C6.60734 33.7916 6.54094 33.7544 6.46918 33.7327C6.39742 33.7111 6.32198 33.7056 6.24797 33.7167L3.50249 33.7156ZM12.4901 32.012L10.3256 35.8381H8.44182L11.4602 30.8038H13.5239L16.5404 35.8381H14.6546L14.147 34.941H11.3555L11.8182 34.1677C11.8762 34.0807 11.9539 34.0094 12.0445 33.96C12.1351 33.9106 12.236 33.8844 12.3385 33.8838H13.5484L12.4901 32.012ZM25.5964 32.012L23.4319 35.8381H21.5491L24.5655 30.8038H26.6293L29.6437 35.8381H27.7619L27.2543 34.941H24.4628L24.9274 34.1677C24.985 34.0807 25.0623 34.0095 25.1526 33.96C25.2429 33.9105 25.3435 33.8844 25.4458 33.8838H26.6576L25.5964 32.012ZM19.4502 34.7779C19.814 34.7779 20.1094 34.5967 20.1094 34.2312V30.8018H21.7154V34.3852C21.7154 35.4716 21.0112 35.8371 20.0879 35.8371H17.4216C17.3194 35.8361 17.2189 35.8098 17.1287 35.7603C17.0385 35.7109 16.9611 35.6399 16.9032 35.5532L16.4386 34.7779H19.4502ZM32.5565 34.7779C32.9203 34.7779 33.2177 34.5967 33.2177 34.2312V30.8018H34.8188V34.3852C34.8188 35.4716 34.1146 35.8371 33.1912 35.8371H30.5211C30.4189 35.8361 30.3184 35.8098 30.2282 35.7603C30.138 35.7109 30.0606 35.6399 30.0027 35.5532L29.5381 34.7779H32.5565Z" fill="#265CA7"/>
<path d="M21.9226 18.8035C22.5155 18.6578 23.0456 18.316 23.4316 17.8304C23.8176 17.3448 24.0383 16.7422 24.0597 16.1151C24.0597 13.3251 21.234 13.0361 19.4764 13.0361H12.6631V24.7682H15.0457V15.5201H22.1368L21.3543 17.0868C21.2835 17.2071 21.1797 17.3031 21.0559 17.3627C20.9322 17.4224 20.794 17.443 20.6589 17.4221H18.067C17.8027 17.454 17.5611 17.5911 17.3939 17.8042C17.2266 18.0172 17.147 18.2892 17.1721 18.5618V21.0257C17.1721 21.0257 17.2444 20.0651 18.0308 19.9876L21.4991 19.9725L20.7538 21.4737C20.6942 21.5979 20.6012 21.7018 20.4859 21.7732C20.3706 21.8446 20.2378 21.8804 20.1034 21.8765L18.02 21.9026C18.02 21.9026 17.307 21.9137 17.1681 22.8874V24.7611H19.4764C21.3778 24.7521 24.0597 24.4772 24.0597 21.6006C24.0614 20.9548 23.8513 20.3273 23.4634 19.8197C23.0756 19.312 22.5327 18.954 21.9226 18.8035Z" fill="#265CA7"/>
</svg>
